<mxfile host="app.diagrams.net" modified="2021-03-22T10:05:48.823Z" agent="5.0 (Windows NT 10.0; Win64; x64) AppleWebKit/537.36 (KHTML, like Gecko) Chrome/89.0.4389.90 Safari/537.36" etag="y2JUBTZgMp75sE_8S-HV" version="14.4.9" type="github">
  <diagram name="Page-1" id="e7e014a7-5840-1c2e-5031-d8a46d1fe8dd">
    <mxGraphModel dx="868" dy="450" grid="1" gridSize="10" guides="1" tooltips="1" connect="1" arrows="1" fold="1" page="1" pageScale="1" pageWidth="1169" pageHeight="826" background="#ffffff" math="0" shadow="0">
      <root>
        <mxCell id="0" />
        <mxCell id="1" parent="0" />
        <mxCell id="_qdsKKJTdr9DCj_0cPD0-41" value="" style="ellipse;whiteSpace=wrap;html=1;aspect=fixed;fillColor=#000000;" parent="1" vertex="1">
          <mxGeometry x="170" y="30" width="50" height="50" as="geometry" />
        </mxCell>
        <mxCell id="_qdsKKJTdr9DCj_0cPD0-46" style="edgeStyle=orthogonalEdgeStyle;rounded=0;orthogonalLoop=1;jettySize=auto;html=1;exitX=0.5;exitY=1;exitDx=0;exitDy=0;entryX=0.5;entryY=0;entryDx=0;entryDy=0;" parent="1" edge="1" target="_qdsKKJTdr9DCj_0cPD0-47">
          <mxGeometry relative="1" as="geometry">
            <mxPoint x="190" y="220" as="targetPoint" />
            <mxPoint x="190" y="160" as="sourcePoint" />
          </mxGeometry>
        </mxCell>
        <mxCell id="_qdsKKJTdr9DCj_0cPD0-43" value="Ввод m" style="rounded=1;whiteSpace=wrap;html=1;gradientColor=none;fillColor=#FFFFFF;arcSize=50;" parent="1" vertex="1">
          <mxGeometry x="140" y="120" width="110" height="40" as="geometry" />
        </mxCell>
        <mxCell id="_qdsKKJTdr9DCj_0cPD0-49" style="edgeStyle=orthogonalEdgeStyle;rounded=0;orthogonalLoop=1;jettySize=auto;html=1;exitX=1;exitY=0.5;exitDx=0;exitDy=0;entryX=0;entryY=0.5;entryDx=0;entryDy=0;" parent="1" source="_qdsKKJTdr9DCj_0cPD0-47" target="64BcI_9wWAsRSYKGbqmx-1" edge="1">
          <mxGeometry relative="1" as="geometry" />
        </mxCell>
        <mxCell id="hJa5-KUuO70FTgrNx1EI-3" style="edgeStyle=orthogonalEdgeStyle;rounded=0;orthogonalLoop=1;jettySize=auto;html=1;exitX=1;exitY=0.5;exitDx=0;exitDy=0;entryX=0;entryY=0.5;entryDx=0;entryDy=0;" edge="1" parent="1" source="_qdsKKJTdr9DCj_0cPD0-47" target="hJa5-KUuO70FTgrNx1EI-1">
          <mxGeometry relative="1" as="geometry" />
        </mxCell>
        <mxCell id="hJa5-KUuO70FTgrNx1EI-5" style="edgeStyle=orthogonalEdgeStyle;rounded=0;orthogonalLoop=1;jettySize=auto;html=1;exitX=1;exitY=0.5;exitDx=0;exitDy=0;entryX=0;entryY=0.5;entryDx=0;entryDy=0;" edge="1" parent="1" source="_qdsKKJTdr9DCj_0cPD0-47" target="hJa5-KUuO70FTgrNx1EI-4">
          <mxGeometry relative="1" as="geometry" />
        </mxCell>
        <mxCell id="hJa5-KUuO70FTgrNx1EI-7" style="edgeStyle=orthogonalEdgeStyle;rounded=0;orthogonalLoop=1;jettySize=auto;html=1;exitX=1;exitY=0.5;exitDx=0;exitDy=0;entryX=0;entryY=0.5;entryDx=0;entryDy=0;" edge="1" parent="1" source="_qdsKKJTdr9DCj_0cPD0-47" target="hJa5-KUuO70FTgrNx1EI-6">
          <mxGeometry relative="1" as="geometry" />
        </mxCell>
        <mxCell id="hJa5-KUuO70FTgrNx1EI-9" style="edgeStyle=orthogonalEdgeStyle;rounded=0;orthogonalLoop=1;jettySize=auto;html=1;exitX=1;exitY=0.5;exitDx=0;exitDy=0;entryX=0;entryY=0.5;entryDx=0;entryDy=0;" edge="1" parent="1" source="_qdsKKJTdr9DCj_0cPD0-47" target="hJa5-KUuO70FTgrNx1EI-8">
          <mxGeometry relative="1" as="geometry" />
        </mxCell>
        <mxCell id="hJa5-KUuO70FTgrNx1EI-11" style="edgeStyle=orthogonalEdgeStyle;rounded=0;orthogonalLoop=1;jettySize=auto;html=1;exitX=1;exitY=0.5;exitDx=0;exitDy=0;entryX=0;entryY=0.5;entryDx=0;entryDy=0;" edge="1" parent="1" source="_qdsKKJTdr9DCj_0cPD0-47" target="hJa5-KUuO70FTgrNx1EI-10">
          <mxGeometry relative="1" as="geometry" />
        </mxCell>
        <mxCell id="hJa5-KUuO70FTgrNx1EI-13" style="edgeStyle=orthogonalEdgeStyle;rounded=0;orthogonalLoop=1;jettySize=auto;html=1;exitX=1;exitY=0.5;exitDx=0;exitDy=0;entryX=0;entryY=0.5;entryDx=0;entryDy=0;" edge="1" parent="1" source="_qdsKKJTdr9DCj_0cPD0-47" target="hJa5-KUuO70FTgrNx1EI-12">
          <mxGeometry relative="1" as="geometry" />
        </mxCell>
        <mxCell id="hJa5-KUuO70FTgrNx1EI-20" style="edgeStyle=orthogonalEdgeStyle;rounded=0;orthogonalLoop=1;jettySize=auto;html=1;exitX=1;exitY=0.5;exitDx=0;exitDy=0;entryX=0;entryY=0.5;entryDx=0;entryDy=0;" edge="1" parent="1" source="_qdsKKJTdr9DCj_0cPD0-47" target="_qdsKKJTdr9DCj_0cPD0-48">
          <mxGeometry relative="1" as="geometry" />
        </mxCell>
        <mxCell id="_qdsKKJTdr9DCj_0cPD0-47" value="" style="rhombus;whiteSpace=wrap;html=1;fillColor=#FFFFFF;gradientColor=none;" parent="1" vertex="1">
          <mxGeometry x="165.5" y="293" width="50" height="43" as="geometry" />
        </mxCell>
        <mxCell id="hJa5-KUuO70FTgrNx1EI-30" style="edgeStyle=orthogonalEdgeStyle;rounded=0;orthogonalLoop=1;jettySize=auto;html=1;exitX=1;exitY=0.5;exitDx=0;exitDy=0;entryX=0;entryY=0.5;entryDx=0;entryDy=0;" edge="1" parent="1" source="_qdsKKJTdr9DCj_0cPD0-48" target="hJa5-KUuO70FTgrNx1EI-21">
          <mxGeometry relative="1" as="geometry" />
        </mxCell>
        <mxCell id="_qdsKKJTdr9DCj_0cPD0-48" value="Вывод &quot;Ошибка&quot;" style="rounded=1;whiteSpace=wrap;html=1;gradientColor=none;fillColor=#FFFFFF;arcSize=50;" parent="1" vertex="1">
          <mxGeometry x="520" y="470" width="110" height="40" as="geometry" />
        </mxCell>
        <mxCell id="_qdsKKJTdr9DCj_0cPD0-51" value="[m = 1]" style="text;html=1;strokeColor=none;fillColor=none;align=center;verticalAlign=middle;whiteSpace=wrap;rounded=0;perimeterSpacing=0;fontSize=16;" parent="1" vertex="1">
          <mxGeometry x="410" y="108" width="60" height="20" as="geometry" />
        </mxCell>
        <mxCell id="_qdsKKJTdr9DCj_0cPD0-54" value="[else]" style="text;html=1;strokeColor=none;fillColor=none;align=center;verticalAlign=middle;whiteSpace=wrap;rounded=0;perimeterSpacing=0;fontSize=16;" parent="1" vertex="1">
          <mxGeometry x="415" y="470" width="50" height="20" as="geometry" />
        </mxCell>
        <mxCell id="_qdsKKJTdr9DCj_0cPD0-59" value="" style="group" parent="1" vertex="1" connectable="0">
          <mxGeometry x="890" y="285" width="60" height="60" as="geometry" />
        </mxCell>
        <mxCell id="_qdsKKJTdr9DCj_0cPD0-58" value="" style="ellipse;whiteSpace=wrap;html=1;gradientColor=none;fontSize=16;fillColor=#FFFFFF;" parent="_qdsKKJTdr9DCj_0cPD0-59" vertex="1">
          <mxGeometry width="60" height="60" as="geometry" />
        </mxCell>
        <mxCell id="_qdsKKJTdr9DCj_0cPD0-56" value="" style="ellipse;whiteSpace=wrap;html=1;aspect=fixed;fontSize=16;fillColor=#000000;" parent="_qdsKKJTdr9DCj_0cPD0-59" vertex="1">
          <mxGeometry x="6.25" y="7" width="47.5" height="47.5" as="geometry" />
        </mxCell>
        <mxCell id="hJa5-KUuO70FTgrNx1EI-22" style="edgeStyle=orthogonalEdgeStyle;rounded=0;orthogonalLoop=1;jettySize=auto;html=1;exitX=1;exitY=0.5;exitDx=0;exitDy=0;entryX=0;entryY=0.5;entryDx=0;entryDy=0;" edge="1" parent="1" source="64BcI_9wWAsRSYKGbqmx-1" target="hJa5-KUuO70FTgrNx1EI-21">
          <mxGeometry relative="1" as="geometry" />
        </mxCell>
        <mxCell id="64BcI_9wWAsRSYKGbqmx-1" value="Вывод &quot;Понедельник&quot;" style="rounded=1;whiteSpace=wrap;html=1;gradientColor=none;fillColor=#FFFFFF;arcSize=50;" parent="1" vertex="1">
          <mxGeometry x="520" y="110" width="110" height="40" as="geometry" />
        </mxCell>
        <mxCell id="6MmxygO9DQHTs_CDxbk4-3" style="edgeStyle=orthogonalEdgeStyle;rounded=0;orthogonalLoop=1;jettySize=auto;html=1;entryX=0.5;entryY=0;entryDx=0;entryDy=0;" parent="1" target="_qdsKKJTdr9DCj_0cPD0-43" edge="1">
          <mxGeometry relative="1" as="geometry">
            <mxPoint x="195" y="80" as="sourcePoint" />
          </mxGeometry>
        </mxCell>
        <mxCell id="hJa5-KUuO70FTgrNx1EI-23" style="edgeStyle=orthogonalEdgeStyle;rounded=0;orthogonalLoop=1;jettySize=auto;html=1;exitX=1;exitY=0.5;exitDx=0;exitDy=0;entryX=0;entryY=0.5;entryDx=0;entryDy=0;" edge="1" parent="1" source="hJa5-KUuO70FTgrNx1EI-1" target="hJa5-KUuO70FTgrNx1EI-21">
          <mxGeometry relative="1" as="geometry" />
        </mxCell>
        <mxCell id="hJa5-KUuO70FTgrNx1EI-1" value="Вывод &quot;Вторник&quot;" style="rounded=1;whiteSpace=wrap;html=1;gradientColor=none;fillColor=#FFFFFF;arcSize=50;" vertex="1" parent="1">
          <mxGeometry x="520" y="165" width="110" height="40" as="geometry" />
        </mxCell>
        <mxCell id="hJa5-KUuO70FTgrNx1EI-24" style="edgeStyle=orthogonalEdgeStyle;rounded=0;orthogonalLoop=1;jettySize=auto;html=1;exitX=1;exitY=0.5;exitDx=0;exitDy=0;entryX=0;entryY=0.5;entryDx=0;entryDy=0;" edge="1" parent="1" source="hJa5-KUuO70FTgrNx1EI-4" target="hJa5-KUuO70FTgrNx1EI-21">
          <mxGeometry relative="1" as="geometry" />
        </mxCell>
        <mxCell id="hJa5-KUuO70FTgrNx1EI-4" value="Вывод &quot;Среда&quot;" style="rounded=1;whiteSpace=wrap;html=1;gradientColor=none;fillColor=#FFFFFF;arcSize=50;" vertex="1" parent="1">
          <mxGeometry x="520" y="221" width="110" height="40" as="geometry" />
        </mxCell>
        <mxCell id="hJa5-KUuO70FTgrNx1EI-25" style="edgeStyle=orthogonalEdgeStyle;rounded=0;orthogonalLoop=1;jettySize=auto;html=1;exitX=1;exitY=0.5;exitDx=0;exitDy=0;entryX=0;entryY=0.5;entryDx=0;entryDy=0;" edge="1" parent="1" source="hJa5-KUuO70FTgrNx1EI-6" target="hJa5-KUuO70FTgrNx1EI-21">
          <mxGeometry relative="1" as="geometry" />
        </mxCell>
        <mxCell id="hJa5-KUuO70FTgrNx1EI-6" value="Вывод &quot;Четверг&quot;" style="rounded=1;whiteSpace=wrap;html=1;gradientColor=none;fillColor=#FFFFFF;arcSize=50;" vertex="1" parent="1">
          <mxGeometry x="520" y="273" width="110" height="40" as="geometry" />
        </mxCell>
        <mxCell id="hJa5-KUuO70FTgrNx1EI-26" style="edgeStyle=orthogonalEdgeStyle;rounded=0;orthogonalLoop=1;jettySize=auto;html=1;exitX=1;exitY=0.5;exitDx=0;exitDy=0;entryX=0;entryY=0.5;entryDx=0;entryDy=0;" edge="1" parent="1" source="hJa5-KUuO70FTgrNx1EI-8" target="hJa5-KUuO70FTgrNx1EI-21">
          <mxGeometry relative="1" as="geometry" />
        </mxCell>
        <mxCell id="hJa5-KUuO70FTgrNx1EI-8" value="Вывод &quot;Пятница&quot;" style="rounded=1;whiteSpace=wrap;html=1;gradientColor=none;fillColor=#FFFFFF;arcSize=50;" vertex="1" parent="1">
          <mxGeometry x="520" y="326" width="110" height="40" as="geometry" />
        </mxCell>
        <mxCell id="hJa5-KUuO70FTgrNx1EI-27" style="edgeStyle=orthogonalEdgeStyle;rounded=0;orthogonalLoop=1;jettySize=auto;html=1;exitX=1;exitY=0.5;exitDx=0;exitDy=0;entryX=0;entryY=0.5;entryDx=0;entryDy=0;" edge="1" parent="1" source="hJa5-KUuO70FTgrNx1EI-10" target="hJa5-KUuO70FTgrNx1EI-21">
          <mxGeometry relative="1" as="geometry" />
        </mxCell>
        <mxCell id="hJa5-KUuO70FTgrNx1EI-10" value="Вывод &quot;Суббота&quot;" style="rounded=1;whiteSpace=wrap;html=1;gradientColor=none;fillColor=#FFFFFF;arcSize=50;" vertex="1" parent="1">
          <mxGeometry x="520" y="374" width="110" height="40" as="geometry" />
        </mxCell>
        <mxCell id="hJa5-KUuO70FTgrNx1EI-28" style="edgeStyle=orthogonalEdgeStyle;rounded=0;orthogonalLoop=1;jettySize=auto;html=1;exitX=1;exitY=0.5;exitDx=0;exitDy=0;entryX=0;entryY=0.5;entryDx=0;entryDy=0;" edge="1" parent="1" source="hJa5-KUuO70FTgrNx1EI-12" target="hJa5-KUuO70FTgrNx1EI-21">
          <mxGeometry relative="1" as="geometry" />
        </mxCell>
        <mxCell id="hJa5-KUuO70FTgrNx1EI-12" value="Вывод &quot;Воскресенье&quot;" style="rounded=1;whiteSpace=wrap;html=1;gradientColor=none;fillColor=#FFFFFF;arcSize=50;" vertex="1" parent="1">
          <mxGeometry x="520" y="420" width="110" height="40" as="geometry" />
        </mxCell>
        <mxCell id="hJa5-KUuO70FTgrNx1EI-14" value="[m = 2]" style="text;html=1;strokeColor=none;fillColor=none;align=center;verticalAlign=middle;whiteSpace=wrap;rounded=0;perimeterSpacing=0;fontSize=16;" vertex="1" parent="1">
          <mxGeometry x="410" y="165" width="60" height="20" as="geometry" />
        </mxCell>
        <mxCell id="hJa5-KUuO70FTgrNx1EI-15" value="[m = 3]" style="text;html=1;strokeColor=none;fillColor=none;align=center;verticalAlign=middle;whiteSpace=wrap;rounded=0;perimeterSpacing=0;fontSize=16;" vertex="1" parent="1">
          <mxGeometry x="410" y="220" width="60" height="20" as="geometry" />
        </mxCell>
        <mxCell id="hJa5-KUuO70FTgrNx1EI-16" value="[m = 4]" style="text;html=1;strokeColor=none;fillColor=none;align=center;verticalAlign=middle;whiteSpace=wrap;rounded=0;perimeterSpacing=0;fontSize=16;" vertex="1" parent="1">
          <mxGeometry x="410" y="273" width="60" height="20" as="geometry" />
        </mxCell>
        <mxCell id="hJa5-KUuO70FTgrNx1EI-17" value="[m = 5]" style="text;html=1;strokeColor=none;fillColor=none;align=center;verticalAlign=middle;whiteSpace=wrap;rounded=0;perimeterSpacing=0;fontSize=16;" vertex="1" parent="1">
          <mxGeometry x="410" y="326" width="60" height="20" as="geometry" />
        </mxCell>
        <mxCell id="hJa5-KUuO70FTgrNx1EI-18" value="[m = 6]" style="text;html=1;strokeColor=none;fillColor=none;align=center;verticalAlign=middle;whiteSpace=wrap;rounded=0;perimeterSpacing=0;fontSize=16;" vertex="1" parent="1">
          <mxGeometry x="410" y="374" width="60" height="20" as="geometry" />
        </mxCell>
        <mxCell id="hJa5-KUuO70FTgrNx1EI-19" value="[m = 7]" style="text;html=1;strokeColor=none;fillColor=none;align=center;verticalAlign=middle;whiteSpace=wrap;rounded=0;perimeterSpacing=0;fontSize=16;" vertex="1" parent="1">
          <mxGeometry x="410" y="420" width="60" height="20" as="geometry" />
        </mxCell>
        <mxCell id="hJa5-KUuO70FTgrNx1EI-31" style="edgeStyle=orthogonalEdgeStyle;rounded=0;orthogonalLoop=1;jettySize=auto;html=1;exitX=1;exitY=0.5;exitDx=0;exitDy=0;entryX=0;entryY=0.5;entryDx=0;entryDy=0;" edge="1" parent="1" source="hJa5-KUuO70FTgrNx1EI-21" target="_qdsKKJTdr9DCj_0cPD0-58">
          <mxGeometry relative="1" as="geometry" />
        </mxCell>
        <mxCell id="hJa5-KUuO70FTgrNx1EI-21" value="" style="rhombus;whiteSpace=wrap;html=1;fillColor=#FFFFFF;gradientColor=none;" vertex="1" parent="1">
          <mxGeometry x="790" y="293" width="50" height="43" as="geometry" />
        </mxCell>
      </root>
    </mxGraphModel>
  </diagram>
</mxfile>
